<svg width="46" height="46" viewBox="0 0 46 46" fill="none" xmlns="http://www.w3.org/2000/svg">
<path fill-rule="evenodd" clip-rule="evenodd" d="M30.894 18.707C30.8481 18.4016 30.5838 18.1771 30.275 18.181H26.714V16.725C26.714 15.7515 26.1946 14.8519 25.3515 14.3651C24.5084 13.8783 23.4696 13.8783 22.6265 14.3651C21.7834 14.8519 21.264 15.7515 21.264 16.725V18.18H17.703C17.3943 18.1761 17.13 18.4006 17.084 18.706L15.009 31.248C14.975 31.4306 15.0262 31.6188 15.148 31.759C15.2691 31.8974 15.4442 31.9766 15.628 31.976H32.365C32.534 31.9779 32.6966 31.9116 32.8161 31.7921C32.9356 31.6726 33.0019 31.51 33 31.341C32.9984 31.2733 32.988 31.206 32.969 31.141L30.894 18.707ZM22.534 16.725C22.534 15.9211 23.1857 15.2695 23.9895 15.2695C24.7934 15.2695 25.445 15.9211 25.445 16.725V18.18H22.534V16.725ZM16.3727 30.721L16.372 30.725V30.721H16.3727ZM16.3727 30.721H31.603L29.73 19.45H26.711V23C26.711 23.3507 26.4267 23.635 26.076 23.635C25.7253 23.635 25.441 23.3507 25.441 23V19.45H22.53V23C22.53 23.3507 22.2457 23.635 21.895 23.635C21.5443 23.635 21.26 23.3507 21.26 23V19.45H18.245L16.3727 30.721Z" fill="#1A1824"/>
<path fill-rule="evenodd" clip-rule="evenodd" d="M31.5 33C32.8807 33 34 31.8807 34 30.5C34 29.1193 32.8807 28 31.5 28C30.1193 28 29 29.1193 29 30.5C29 31.8807 30.1193 33 31.5 33Z" fill="#34C47C"/>
<path fill-rule="evenodd" clip-rule="evenodd" d="M31.5 34C33.433 34 35 32.433 35 30.5C35 28.567 33.433 27 31.5 27C29.567 27 28 28.567 28 30.5C28 32.433 29.567 34 31.5 34Z" stroke="white" stroke-width="2"/>
</svg>
