<svg width="46" height="46" viewBox="0 0 46 46" fill="none" xmlns="http://www.w3.org/2000/svg">
<rect width="46" height="46" fill="white"/>
<path fill-rule="evenodd" clip-rule="evenodd" d="M15.715 17.911H20.6H20.601C20.9412 16.2164 22.4296 14.9972 24.158 14.9972C25.8863 14.9972 27.3747 16.2164 27.715 17.911H30.93C31.3246 17.911 31.6445 18.2309 31.6445 18.6255C31.6445 19.0201 31.3246 19.34 30.93 19.34H27.714C27.3737 21.0345 25.8853 22.2537 24.157 22.2537C22.4286 22.2537 20.9402 21.0345 20.6 19.34H15.715C15.3204 19.34 15.0005 19.0201 15.0005 18.6255C15.0005 18.2309 15.3204 17.911 15.715 17.911ZM24.9949 20.6575C25.817 20.317 26.353 19.5148 26.353 18.625H26.355C26.355 18.0411 26.1229 17.4813 25.7099 17.0686C25.2969 16.656 24.7368 16.4244 24.153 16.425C23.2632 16.425 22.461 16.961 22.1205 17.7831C21.7799 18.6051 21.9682 19.5514 22.5974 20.1806C23.2265 20.8098 24.1728 20.998 24.9949 20.6575Z" fill="#1A1824"/>
<path fill-rule="evenodd" clip-rule="evenodd" d="M15.713 26.66H17.013C17.3531 24.967 18.8402 23.7489 20.567 23.7489C22.2938 23.7489 23.7809 24.967 24.121 26.66H30.927C31.1886 26.6502 31.4347 26.7842 31.5684 27.0093C31.7022 27.2344 31.7022 27.5146 31.5684 27.7397C31.4347 27.9648 31.1886 28.0988 30.927 28.089H24.127C23.7867 29.7835 22.2983 31.0027 20.57 31.0027C18.8416 31.0027 17.3532 29.7835 17.013 28.089H15.713C15.4513 28.0988 15.2053 27.9648 15.0715 27.7397C14.9378 27.5146 14.9378 27.2344 15.0715 27.0093C15.2053 26.7842 15.4513 26.6502 15.713 26.66ZM20.566 29.575C21.781 29.575 22.766 28.59 22.766 27.375V27.374C22.7654 26.1593 21.7806 25.175 20.566 25.175C19.351 25.175 18.366 26.16 18.366 27.375C18.366 28.59 19.351 29.575 20.566 29.575Z" fill="#1A1824"/>
</svg>
