<svg width="20" height="20" viewBox="0 0 14 14" fill="none" xmlns="http://www.w3.org/2000/svg">
<path opacity="0.3" fill-rule="evenodd" clip-rule="evenodd" d="M11.094 9.862L14 12.767L12.767 14L9.864 11.095C8.80133 11.9046 7.49987 12.3383 6.164 12.328C4.5261 12.3382 2.95233 11.692 1.79414 10.5339C0.635951 9.37566 -0.0101952 7.80189 -3.3046e-06 6.164C-0.0101952 4.5261 0.635951 2.95233 1.79414 1.79414C2.95233 0.635951 4.5261 -0.0101952 6.164 -3.3046e-06C7.80137 -0.00992141 9.37457 0.63607 10.5325 1.7938C11.6904 2.95152 12.3366 4.52462 12.327 6.162C12.3373 7.49787 11.9036 8.79933 11.094 9.862ZM3.03783 3.04083C2.21032 3.86834 1.75021 4.99377 1.761 6.164C1.75021 7.33422 2.21032 8.45966 3.03783 9.28717C3.86534 10.1147 4.99077 10.5748 6.161 10.564C7.33122 10.5748 8.45666 10.1147 9.28417 9.28717C10.1117 8.45966 10.5718 7.33422 10.561 6.164C10.5718 4.99377 10.1117 3.86834 9.28417 3.04083C8.45666 2.21332 7.33122 1.75321 6.161 1.764C4.99077 1.75321 3.86534 2.21332 3.03783 3.04083Z" fill="#1A1824"/>
</svg>
