<svg width="124" height="122" viewBox="0 0 124 122" fill="none" xmlns="http://www.w3.org/2000/svg">
<path fill-rule="evenodd" clip-rule="evenodd" d="M22.5659 15.6264L47.6219 24.6229L61.3499 1.00008L22.5659 15.6264Z" fill="#347AF0" stroke="white" stroke-width="1.5" stroke-linejoin="round"/>
<path fill-rule="evenodd" clip-rule="evenodd" d="M82.3121 37.0754L47.6218 24.6228L61.3498 0.999939L82.3121 37.0754Z" fill="#347AF0" stroke="white" stroke-width="1.5" stroke-linejoin="round"/>
<path fill-rule="evenodd" clip-rule="evenodd" d="M122.632 51.551L82.312 37.0756L61.3497 1.00014L101.074 15.6264L122.632 51.551Z" fill="#347AF0" stroke="white" stroke-width="1.5" stroke-linejoin="round"/>
<path fill-rule="evenodd" clip-rule="evenodd" d="M122.632 51.551L100.669 68.6664L82.312 37.0756L122.632 51.551Z" fill="#347AF0" stroke="white" stroke-width="1.5" stroke-linejoin="round"/>
<path fill-rule="evenodd" clip-rule="evenodd" d="M122.632 51.551L115.027 93.3796L100.669 68.6664L122.632 51.551Z" fill="#347AF0" stroke="white" stroke-width="1.5" stroke-linejoin="round"/>
<path fill-rule="evenodd" clip-rule="evenodd" d="M115.028 93.3796H71.1075L86.3098 79.8504L100.669 68.6664L115.028 93.3796Z" fill="#347AF0" stroke="white" stroke-width="1.5" stroke-linejoin="round"/>
<path fill-rule="evenodd" clip-rule="evenodd" d="M115.028 93.3796L82.6002 120.836H40.2573L71.1076 93.3796H115.028Z" fill="#347AF0" stroke="white" stroke-width="1.5" stroke-linejoin="round"/>
<path fill-rule="evenodd" clip-rule="evenodd" d="M71.1077 93.3796L40.2574 120.836L35.6418 93.3796H71.1077Z" fill="#347AF0" stroke="white" stroke-width="1.5" stroke-linejoin="round"/>
<path fill-rule="evenodd" clip-rule="evenodd" d="M40.2572 120.836L7.67139 93.3796H35.6424L40.2572 120.836Z" fill="#347AF0" stroke="white" stroke-width="1.5" stroke-linejoin="round"/>
<path fill-rule="evenodd" clip-rule="evenodd" d="M35.6422 93.3796H7.67188L29.3617 56.0493L35.6422 93.3796Z" fill="#347AF0" stroke="white" stroke-width="1.5" stroke-linejoin="round"/>
<path fill-rule="evenodd" clip-rule="evenodd" d="M29.3615 56.049L7.67168 93.3793L1.00037 51.5507L22.5661 15.6262L29.3615 56.049Z" fill="#347AF0" stroke="white" stroke-width="1.5" stroke-linejoin="round"/>
<path fill-rule="evenodd" clip-rule="evenodd" d="M47.622 24.623L29.3615 56.0493L22.566 15.6264L47.622 24.623Z" fill="#347AF0" stroke="white" stroke-width="1.5" stroke-linejoin="round"/>
</svg>
